<svg xmlns="http://www.w3.org/2000/svg" id="紋理" width="64.819" height="64.071" viewBox="0 0 64.819 64.071">
    <defs>
        <clipPath id="clip-path">
            <path id="Rectangle_54" fill="none" d="M0 0H64.819V64.071H0z"/>
        </clipPath>
        <style>
            .cls-4{fill:#fff;stroke:#1a1311;stroke-miterlimit:10;stroke-width:2px}
        </style>
    </defs>
    <g id="紋理-2" opacity="0.05">
        <g id="Group_218" clip-path="url(#clip-path)">
            <g id="Group_209" transform="translate(-.33 -13.52)">
                <ellipse id="Ellipse_22" cx="32.081" cy="32.237" class="cls-4" rx="32.081" ry="32.237"/>
                <ellipse id="Ellipse_23" cx="24.061" cy="24.178" class="cls-4" rx="24.061" ry="24.178" transform="translate(8.02 8.059)"/>
                <ellipse id="Ellipse_24" cx="16.04" cy="16.118" class="cls-4" rx="16.04" ry="16.118" transform="translate(16.041 16.119)"/>
                <ellipse id="Ellipse_25" cx="8.02" cy="8.059" class="cls-4" rx="8.02" ry="8.059" transform="translate(24.061 24.178)"/>
            </g>
            <g id="Group_210" transform="translate(-33.068 2.252)">
                <ellipse id="Ellipse_26" cx="32.081" cy="32.237" class="cls-4" rx="32.081" ry="32.237"/>
                <ellipse id="Ellipse_27" cx="24.061" cy="24.178" class="cls-4" rx="24.061" ry="24.178" transform="translate(8.02 8.059)"/>
                <ellipse id="Ellipse_28" cx="16.04" cy="16.118" class="cls-4" rx="16.04" ry="16.118" transform="translate(16.041 16.119)"/>
                <ellipse id="Ellipse_29" cx="8.02" cy="8.059" class="cls-4" rx="8.02" ry="8.059" transform="translate(24.061 24.178)"/>
            </g>
            <g id="Group_211" transform="translate(32.408 2.252)">
                <ellipse id="Ellipse_30" cx="32.081" cy="32.237" class="cls-4" rx="32.081" ry="32.237"/>
                <ellipse id="Ellipse_31" cx="24.061" cy="24.178" class="cls-4" rx="24.061" ry="24.178" transform="translate(8.02 8.059)"/>
                <ellipse id="Ellipse_32" cx="16.04" cy="16.118" class="cls-4" rx="16.04" ry="16.118" transform="translate(16.041 16.119)"/>
                <ellipse id="Ellipse_33" cx="8.02" cy="8.059" class="cls-4" rx="8.02" ry="8.059" transform="translate(24.061 24.178)"/>
            </g>
            <g id="Group_212" transform="translate(-.33 18.544)">
                <ellipse id="Ellipse_34" cx="32.081" cy="32.237" class="cls-4" rx="32.081" ry="32.237"/>
                <ellipse id="Ellipse_35" cx="24.061" cy="24.178" class="cls-4" rx="24.061" ry="24.178" transform="translate(8.02 8.059)"/>
                <ellipse id="Ellipse_36" cx="16.04" cy="16.118" class="cls-4" rx="16.04" ry="16.118" transform="translate(16.041 16.119)"/>
                <ellipse id="Ellipse_37" cx="8.02" cy="8.059" class="cls-4" rx="8.02" ry="8.059" transform="translate(24.061 24.178)"/>
            </g>
            <g id="Group_213" transform="translate(-33.068 34.315)">
                <ellipse id="Ellipse_38" cx="32.081" cy="32.237" class="cls-4" rx="32.081" ry="32.237"/>
                <ellipse id="Ellipse_39" cx="24.061" cy="24.178" class="cls-4" rx="24.061" ry="24.178" transform="translate(8.02 8.059)"/>
                <ellipse id="Ellipse_40" cx="16.04" cy="16.118" class="cls-4" rx="16.04" ry="16.118" transform="translate(16.041 16.119)"/>
                <ellipse id="Ellipse_41" cx="8.02" cy="8.059" class="cls-4" rx="8.02" ry="8.059" transform="translate(24.061 24.178)"/>
            </g>
            <g id="Group_214" transform="translate(32.408 34.315)">
                <ellipse id="Ellipse_42" cx="32.081" cy="32.237" class="cls-4" rx="32.081" ry="32.237"/>
                <ellipse id="Ellipse_43" cx="24.061" cy="24.178" class="cls-4" rx="24.061" ry="24.178" transform="translate(8.02 8.059)"/>
                <ellipse id="Ellipse_44" cx="16.04" cy="16.118" class="cls-4" rx="16.04" ry="16.118" transform="translate(16.041 16.119)"/>
                <ellipse id="Ellipse_45" cx="8.02" cy="8.059" class="cls-4" rx="8.02" ry="8.059" transform="translate(24.061 24.178)"/>
            </g>
            <g id="Group_215" transform="translate(-.33 50.607)">
                <ellipse id="Ellipse_46" cx="32.081" cy="32.237" class="cls-4" rx="32.081" ry="32.237"/>
                <ellipse id="Ellipse_47" cx="24.061" cy="24.178" class="cls-4" rx="24.061" ry="24.178" transform="translate(8.02 8.059)"/>
                <ellipse id="Ellipse_48" cx="16.04" cy="16.118" class="cls-4" rx="16.04" ry="16.118" transform="translate(16.041 16.119)"/>
                <ellipse id="Ellipse_49" cx="8.02" cy="8.059" class="cls-4" rx="8.02" ry="8.059" transform="translate(24.061 24.178)"/>
            </g>
            <g id="Group_216" transform="translate(-33.068 66.379)">
                <ellipse id="Ellipse_50" cx="32.081" cy="32.237" class="cls-4" rx="32.081" ry="32.237"/>
                <ellipse id="Ellipse_51" cx="24.061" cy="24.178" class="cls-4" rx="24.061" ry="24.178" transform="translate(8.02 8.059)"/>
                <ellipse id="Ellipse_52" cx="16.04" cy="16.118" class="cls-4" rx="16.04" ry="16.118" transform="translate(16.041 16.119)"/>
                <ellipse id="Ellipse_53" cx="8.02" cy="8.059" class="cls-4" rx="8.02" ry="8.059" transform="translate(24.061 24.178)"/>
            </g>
            <g id="Group_217" transform="translate(32.408 66.379)">
                <ellipse id="Ellipse_54" cx="32.081" cy="32.237" class="cls-4" rx="32.081" ry="32.237"/>
                <ellipse id="Ellipse_55" cx="24.061" cy="24.178" class="cls-4" rx="24.061" ry="24.178" transform="translate(8.02 8.059)"/>
                <ellipse id="Ellipse_56" cx="16.04" cy="16.118" class="cls-4" rx="16.04" ry="16.118" transform="translate(16.041 16.119)"/>
                <ellipse id="Ellipse_57" cx="8.02" cy="8.059" class="cls-4" rx="8.02" ry="8.059" transform="translate(24.061 24.178)"/>
            </g>
        </g>
    </g>
</svg>
